<?xml version="1.0"?>
<svg xmlns="http://www.w3.org/2000/svg" xmlns:xlink="http://www.w3.org/1999/xlink" xmlns:svgjs="http://svgjs.com/svgjs" version="1.1" width="512" height="512" x="0" y="0" viewBox="0 0 488.002 488" style="enable-background:new 0 0 512 512" xml:space="preserve" class=""><g><path xmlns="http://www.w3.org/2000/svg" d="m435.621094 349.402344h-383.242188c-11.253906 0-20.378906-9.125-20.378906-20.378906v-247.242188c0-11.253906 9.125-20.378906 20.378906-20.378906h383.242188c11.253906 0 20.378906 9.125 20.378906 20.378906v247.242188c0 11.253906-9.125 20.378906-20.378906 20.378906zm0 0" fill="#d3e3f9" data-original="#a4c9ff" style="" class=""/><path xmlns="http://www.w3.org/2000/svg" d="m48 318.808594v-227.808594c0-6.679688 5.414062-12.097656 12.097656-12.097656h367.804688c6.683594 0 12.097656 5.417968 12.097656 12.097656v227.808594c0 6.679687-5.414062 12.09375-12.097656 12.09375h-367.804688c-6.683594 0-12.097656-5.414063-12.097656-12.09375zm0 0" fill="#f9a7a7" data-original="#f9a7a7" style="" class=""/><path xmlns="http://www.w3.org/2000/svg" d="m427.902344 78.902344h-112.902344v159.101562h125v-147.003906c0-6.679688-5.414062-12.097656-12.097656-12.097656zm0 0" fill="#f9e89f" data-original="#ffea92" style="" class=""/><path xmlns="http://www.w3.org/2000/svg" d="m445.992188 351.460938c-3.117188-1.347657-6.691407-2.054688-10.335938-2.054688h-383.3125c-3.644531 0-7.21875.710938-10.335938 2.054688l-30.007812 12.941406h464zm0 0" fill="#e0ebfc" data-original="#e0ebfc" style="" class=""/><path xmlns="http://www.w3.org/2000/svg" d="m474.96875 402.476562h-461.9375c-4.988281 0-9.03125-4.042968-9.03125-9.03125v-20.007812c0-4.988281 4.042969-9.03125 9.03125-9.03125h461.9375c4.988281 0 9.03125 4.042969 9.03125 9.03125v20.007812c0 4.988282-4.042969 9.03125-9.03125 9.03125zm0 0" fill="#d3e3f9" data-original="#a4c9ff" style="" class=""/><path xmlns="http://www.w3.org/2000/svg" d="m244 364.402344h-46l6.757812 11.617187c.792969 1.363281 1.890626 2.132813 3.042969 2.132813h72.398438c1.152343 0 2.25-.769532 3.042969-2.132813l6.757812-11.617187zm0 0" fill="#e0ebfc" data-original="#e0ebfc" style="" class=""/><path xmlns="http://www.w3.org/2000/svg" d="m435.621094 353.402344h-383.242188c-13.441406 0-24.378906-10.933594-24.378906-24.378906v-247.242188c0-13.441406 10.9375-24.378906 24.378906-24.378906h383.242188c13.441406 0 24.378906 10.9375 24.378906 24.378906v247.242188c0 13.445312-10.9375 24.378906-24.378906 24.378906zm-383.242188-288c-9.03125 0-16.378906 7.347656-16.378906 16.378906v247.242188c0 9.03125 7.347656 16.378906 16.378906 16.378906h383.242188c9.03125 0 16.378906-7.347656 16.378906-16.378906v-247.242188c0-9.03125-7.347656-16.378906-16.378906-16.378906zm0 0" fill="#3762cc" data-original="#3762cc" style="" class=""/><path xmlns="http://www.w3.org/2000/svg" d="m476 368.402344h-464c-1.894531 0-3.535156-1.332032-3.917969-3.191406-.382812-1.859376.59375-3.730469 2.332031-4.480469l30.007813-12.945313c3.617187-1.558594 7.738281-2.382812 11.921875-2.382812h383.3125c4.183594 0 8.304688.824218 11.921875 2.382812l30.007813 12.945313c1.738281.75 2.714843 2.621093 2.332031 4.480469-.382813 1.859374-2.023438 3.191406-3.917969 3.191406zm-444.625-8h425.253906l-12.21875-5.269532c-2.625-1.132812-5.648437-1.730468-8.753906-1.730468h-383.3125c-3.105469 0-6.128906.597656-8.753906 1.730468zm0 0" fill="#3762cc" data-original="#3762cc" style="" class=""/><path xmlns="http://www.w3.org/2000/svg" d="m474.964844 406.476562h-461.929688c-7.1875 0-13.035156-5.84375-13.035156-13.03125v-20.007812c0-7.1875 5.847656-13.03125 13.035156-13.03125h461.933594c7.1875 0 13.035156 5.84375 13.035156 13.03125v20.007812c-.003906 7.183594-5.851562 13.03125-13.039062 13.03125zm-461.929688-38.074218c-2.777344 0-5.035156 2.257812-5.035156 5.03125v20.007812c0 2.777344 2.257812 5.035156 5.035156 5.035156h461.933594c2.773438 0 5.035156-2.257812 5.035156-5.035156v-20.007812c0-2.773438-2.261718-5.03125-5.035156-5.03125zm0 0" fill="#3762cc" data-original="#3762cc" style="" class=""/><path xmlns="http://www.w3.org/2000/svg" d="m427.902344 334.902344h-367.804688c-8.878906 0-16.097656-7.21875-16.097656-16.09375v-227.808594c0-8.878906 7.21875-16.097656 16.097656-16.097656h367.804688c8.878906 0 16.097656 7.21875 16.097656 16.097656v227.808594c0 8.875-7.21875 16.09375-16.097656 16.09375zm-367.804688-252c-4.464844 0-8.097656 3.632812-8.097656 8.097656v227.808594c0 4.460937 3.628906 8.09375 8.097656 8.09375h367.804688c4.464844 0 8.097656-3.632813 8.097656-8.09375v-227.808594c0-4.464844-3.628906-8.097656-8.097656-8.097656zm0 0" fill="#3762cc" data-original="#3762cc" style="" class=""/><path xmlns="http://www.w3.org/2000/svg" d="m298.089844 58c0 29.824219-24.175782 54-54 54-29.824219 0-54-24.175781-54-54s24.175781-54 54-54c29.824218 0 54 24.175781 54 54zm0 0" fill="#e0ebfc" data-original="#e0ebfc" style="" class=""/><path xmlns="http://www.w3.org/2000/svg" d="m278.089844 58c0 18.777344-15.222656 34-34 34s-34-15.222656-34-34 15.222656-34 34-34 34 15.222656 34 34zm0 0" fill="#d3e3f9" data-original="#a4c9ff" style="" class=""/><path xmlns="http://www.w3.org/2000/svg" d="m260.089844 58c0 8.835938-7.164063 16-16 16-8.835938 0-16-7.164062-16-16s7.164062-16 16-16c8.835937 0 16 7.164062 16 16zm0 0" fill="#4671c6" data-original="#4671c6" style="" class=""/><path xmlns="http://www.w3.org/2000/svg" d="m244.089844 116c-31.980469 0-58-26.015625-58-58 0-31.980469 26.019531-58 58-58 31.980468 0 58 26.019531 58 58 0 31.984375-26.019532 58-58 58zm0-108c-27.570313 0-50 22.429688-50 50s22.429687 50 50 50c27.570312 0 50-22.429688 50-50s-22.429688-50-50-50zm0 0" fill="#3762cc" data-original="#3762cc" style="" class=""/><path xmlns="http://www.w3.org/2000/svg" d="m249.152344 15.605469c0 2.847656-2.304688 5.152343-5.152344 5.152343s-5.152344-2.304687-5.152344-5.152343c0-2.847657 2.304688-5.15625 5.152344-5.15625s5.152344 2.308593 5.152344 5.15625zm0 0" fill="#f9a7a7" data-original="#f9a7a7" style="" class=""/><path xmlns="http://www.w3.org/2000/svg" d="m229.410156 278.769531h-8.683594c-.019531 0-.039062-.003906-.054687-.003906l-.007813.003906h-57.121093c-15.089844 0-27.324219 12.234375-27.324219 27.324219v24.808594h120.515625v-24.808594c0-15.089844-12.234375-27.324219-27.324219-27.324219zm0 0" fill="#f9a7a7" data-original="#f9a7a7" style="" class=""/><path xmlns="http://www.w3.org/2000/svg" d="m196.476562 272.484375c-8.753906 0-17.015624-2.082031-24.3125-5.773437v11.039062c0 .386719.054688.761719.132813 1.136719h.007813c.078124.371093.199218.730469.347656 1.078125.023437.042968.039062.089844.0625.132812.066406.144532.140625.28125.21875.414063.078125.132812.164062.257812.253906.386719.046875.066406.089844.136718.140625.203124l3.453125 4.390626c3.441406 4.371093 8.207031 7.539062 13.605469 8.800781.726562.171875 1.476562.316406 2.253906.433593 8.765625 1.3125 17.535156-2.417968 22.984375-9.453124l5.03125-6.492188c.070312-.347656.117188-.703125.117188-1.058594v-11.003906c-7.289063 3.6875-15.546876 5.765625-24.296876 5.765625zm0 0" fill="#f9cfcf" data-original="#f9cfcf" style=""/><path xmlns="http://www.w3.org/2000/svg" d="m256.734375 334.902344h-120.515625c-2.207031 0-4-1.792969-4-4v-24.808594c0-17.269531 14.050781-31.324219 31.324219-31.324219h4.621093v-8.058593c0-1.390626.71875-2.683594 1.902344-3.410157 1.183594-.730469 2.660156-.792969 3.902344-.160156 7.007812 3.542969 14.582031 5.34375 22.507812 5.34375 7.917969 0 15.488282-1.796875 22.492188-5.335937 1.238281-.628907 2.71875-.566407 3.902344.164062 1.183594.726562 1.902344 2.015625 1.902344 3.40625v8.054688h4.632812c17.273438 0 31.324219 14.050781 31.324219 31.324218v24.808594c.003906 2.207031-1.785157 3.996094-3.996094 3.996094zm-116.515625-8h112.515625v-20.808594c0-12.859375-10.460937-23.324219-23.324219-23.324219h-8.683594c-.066406 0-.128906 0-.191406-.003906-.59375-.019531-1.183594-.167969-1.734375-.457031-1.546875-.816406-2.390625-2.546875-2.066406-4.269532.019531-.105468.042969-.210937.042969-.316406v-4.882812c-6.460938 2.421875-13.261719 3.648437-20.300782 3.648437-7.042968 0-13.851562-1.226562-20.3125-3.65625v4.917969c.007813.082031.027344.164062.042969.246094.230469 1.175781-.074219 2.390625-.835937 3.316406-.757813.921875-1.890625 1.457031-3.089844 1.457031h-8.734375c-12.863281 0-23.324219 10.464844-23.324219 23.324219v20.808594zm0 0" fill="#3762cc" data-original="#3762cc" style="" class=""/><path xmlns="http://www.w3.org/2000/svg" d="m256.734375 319.804688v-13.707032c0-15.089844-12.234375-27.324218-27.324219-27.324218h-8.683594c-.019531 0-.039062-.003907-.054687-.003907l-.007813.003907h-2.457031l-10.148437 24.847656v27.285156h48.671875v-11.101562zm0 0" fill="#6bdddd" data-original="#6bdddd" style="" class=""/><path xmlns="http://www.w3.org/2000/svg" d="m174.742188 278.769531h-11.199219c-15.089844 0-27.324219 12.234375-27.324219 27.324219v24.808594h48.671875v-27.285156zm0 0" fill="#6bdddd" data-original="#6bdddd" style="" class=""/><path xmlns="http://www.w3.org/2000/svg" d="m250.394531 199.191406c-.113281 0-.222656.011719-.339843.015625v-5.015625c0-29.324218-23.988282-53.097656-53.578126-53.097656-29.589843 0-53.578124 23.773438-53.578124 53.097656v5.015625c-.113282-.003906-.222657-.015625-.335938-.015625-9.027344 0-16.347656 7.25-16.347656 16.199219 0 8.945313 7.320312 16.195313 16.347656 16.195313.589844 0 1.175781-.035157 1.753906-.09375 5.527344 23.488281 26.777344 40.992187 52.160156 40.992187 25.386719 0 46.636719-17.503906 52.164063-40.992187.574219.058593 1.160156.09375 1.753906.09375 9.027344 0 16.34375-7.25 16.34375-16.195313 0-8.949219-7.316406-16.199219-16.34375-16.199219zm0 0" fill="#f9cfcf" data-original="#f9cfcf" style=""/><path xmlns="http://www.w3.org/2000/svg" d="m169.851562 223.816406c-3.101562 0-5.625-2.519531-5.625-5.625v-9.371094c0-3.101562 2.527344-5.625 5.625-5.625 3.101563 0 5.625 2.523438 5.625 5.625v9.371094c0 3.105469-2.523437 5.625-5.625 5.625zm0 0" fill="#3762cc" data-original="#3762cc" style="" class=""/><path xmlns="http://www.w3.org/2000/svg" d="m222.847656 223.816406c-3.101562 0-5.625-2.519531-5.625-5.625v-9.371094c0-3.101562 2.523438-5.625 5.625-5.625 3.101563 0 5.625 2.523438 5.625 5.625v9.371094c0 3.105469-2.523437 5.625-5.625 5.625zm0 0" fill="#3762cc" data-original="#3762cc" style="" class=""/><path xmlns="http://www.w3.org/2000/svg" d="m256.734375 334.902344h-48.675781c-2.207032 0-4-1.792969-4-4v-27.285156c0-.515626.101562-1.03125.296875-1.511719l10.148437-24.847657c.613282-1.503906 2.074219-2.488281 3.703125-2.488281h2.308594c.097656 0 .191406-.003906.300781 0h8.589844c17.273438 0 31.324219 14.054688 31.324219 31.328125v24.804688c.003906 2.210937-1.785157 4-3.996094 4zm-44.675781-8h40.675781v-20.804688c0-12.863281-10.460937-23.328125-23.324219-23.328125h-8.515625l-8.835937 21.636719zm0 0" fill="#3762cc" data-original="#3762cc" style="" class=""/><path xmlns="http://www.w3.org/2000/svg" d="m184.886719 334.902344h-48.667969c-2.207031 0-4-1.792969-4-4v-24.804688c0-17.273437 14.050781-31.328125 31.324219-31.328125h11.199219c1.625 0 3.085937.984375 3.703124 2.488281l10.148438 24.847657c.195312.480469.292969.996093.292969 1.511719v27.285156c0 2.210937-1.789063 4-4 4zm-44.667969-8h40.667969v-22.496094l-8.832031-21.636719h-8.511719c-12.863281 0-23.324219 10.464844-23.324219 23.328125zm0 0" fill="#3762cc" data-original="#3762cc" style="" class=""/><path xmlns="http://www.w3.org/2000/svg" d="m220.777344 272.484375-12.714844 31.136719 11.042969 8.554687c1.003906.777344 2.46875.40625 2.984375-.757812l14.015625-31.816407-2.019531-4.742187c-.613282-1.441406-2.027344-2.375-3.589844-2.375zm0 0" fill="#6bdddd" data-original="#6bdddd" style="" class=""/><path xmlns="http://www.w3.org/2000/svg" d="m220.289062 316.585938c-1.304687 0-2.574218-.429688-3.632812-1.25l-11.042969-8.554688c-1.417969-1.101562-1.933593-3.011719-1.253906-4.675781l12.714844-31.132813c.617187-1.503906 2.078125-2.488281 3.703125-2.488281h9.714844c3.175781 0 6.03125 1.886719 7.273437 4.804687l2.019531 4.742188c.433594 1.019531.425782 2.167969-.019531 3.183594l-14.019531 31.816406c-.742188 1.691406-2.195313 2.917969-3.980469 3.371094-.492187.121094-.988281.183594-1.476563.183594zm-7.378906-14.265626 6.570313 5.085938 12.261719-27.832031-1.339844-3.148438-6.933594.042969zm0 0" fill="#3762cc" data-original="#3762cc" style="" class=""/><path xmlns="http://www.w3.org/2000/svg" d="m172.175781 272.484375 12.710938 31.136719-11.042969 8.554687c-1.003906.777344-2.46875.40625-2.980469-.757812l-14.019531-31.816407 2.019531-4.742187c.613281-1.441406 2.027344-2.375 3.589844-2.375zm0 0" fill="#6bdddd" data-original="#6bdddd" style="" class=""/><path xmlns="http://www.w3.org/2000/svg" d="m172.664062 316.585938c-.492187 0-.984374-.0625-1.476562-.183594-1.789062-.457032-3.238281-1.683594-3.980469-3.371094l-14.019531-31.820312c-.449219-1.011719-.457031-2.164063-.023438-3.179688l2.023438-4.742188c1.246094-2.917968 4.097656-4.804687 7.269531-4.804687h9.71875c1.625 0 3.085938.984375 3.703125 2.488281l12.714844 31.132813c.679688 1.664062.164062 3.578125-1.253906 4.675781l-11.042969 8.554688c-1.0625.820312-2.332031 1.25-3.632813 1.25zm-11.46875-37.039063 12.273438 27.859375 6.570312-5.085938-10.550781-25.835937h-7.03125zm0 0" fill="#3762cc" data-original="#3762cc" style="" class=""/><path xmlns="http://www.w3.org/2000/svg" d="m196.476562 276.484375c-25.796874 0-48.058593-16.675781-55.222656-40.9375-10.613281-.667969-19.039062-9.457031-19.039062-20.15625 0-9.898437 7.207031-18.15625 16.683594-19.871094v-1.328125c0-31.480468 25.828124-57.09375 57.578124-57.09375 31.746094 0 57.578126 25.613282 57.578126 57.09375v1.328125c9.476562 1.714844 16.683593 9.972657 16.683593 19.871094 0 10.699219-8.425781 19.484375-19.039062 20.15625-7.160157 24.265625-29.421875 40.9375-55.222657 40.9375zm-52.160156-48.992187c1.835938 0 3.460938 1.257812 3.890625 3.082031 5.253907 22.324219 25.101563 37.910156 48.269531 37.910156 23.167969 0 43.015626-15.585937 48.265626-37.910156.464843-1.964844 2.316406-3.277344 4.320312-3.0625.4375.046875.878906.074219 1.328125.074219 6.808594 0 12.347656-5.472657 12.347656-12.199219 0-6.703125-5.5-12.160157-12.277343-12.199219-.179688.011719-.332032.015625-.40625.019531-1.042969 0-2.042969-.40625-2.792969-1.132812-.773438-.753907-1.207031-1.789063-1.207031-2.867188v-5.019531c0-27.070312-22.242188-49.09375-49.578126-49.09375-27.339843 0-49.578124 22.023438-49.578124 49.09375v5.019531c0 1.078125-.4375 2.113281-1.207032 2.867188-.773437.753906-1.804687 1.167969-2.894531 1.132812-.0625-.003906-.273437-.015625-.335937-.019531-6.707032 0-12.246094 5.472656-12.246094 12.203125 0 6.726563 5.542968 12.199219 12.347656 12.199219.449219 0 .890625-.027344 1.328125-.074219.144531-.015625.285156-.023437.425781-.023437zm0 0" fill="#3762cc" data-original="#3762cc" style="" class=""/><path xmlns="http://www.w3.org/2000/svg" d="m260.320312 190.1875h-18.070312c-10.925781 0-19.78125-8.859375-19.78125-19.78125v-27.453125c0-6.554687 5.3125-11.871094 11.871094-11.871094h5.601562c14.800782 0 26.796875 12 26.796875 26.800781v25.886719c0 3.546875-2.871093 6.417969-6.417969 6.417969zm0 0" fill="#4671c6" data-original="#4671c6" style="" class=""/><path xmlns="http://www.w3.org/2000/svg" d="m210.757812 131.082031h-57.671874c-4.488282-.652343-20.683594-3.644531-27.136719-13.507812-.859375-1.320313-3.035157-.957031-3.410157.542969-3.375 13.382812-10.449218 50.207031 8.851563 65.816406l.203125-.464844c4.390625 4.253906 10.316406 6.867188 16.839844 6.867188h48.664062c14.011719 0 25.371094-11.640626 25.371094-25.996094v-21.257813c0-6.628906-5.242188-12-11.710938-12zm0 0" fill="#4671c6" data-original="#4671c6" style="" class=""/><path xmlns="http://www.w3.org/2000/svg" d="m131.742188 183.769531v19.351563c2.863281-2.441406 6.578124-3.929688 10.65625-3.929688.113281 0 .222656.015625.335937.019532v-5.019532c0-1.507812.074219-3 .203125-4.476562-4.261719-.980469-8.097656-3.066406-11.195312-5.945313zm0 0" fill="#4671c6" data-original="#4671c6" style="" class=""/><path xmlns="http://www.w3.org/2000/svg" d="m260.40625 190.1875h-10.472656c.101562 1.320312.15625 2.65625.15625 4.003906v5.015625c.113281-.003906.222656-.019531.335937-.019531 4.234375 0 8.078125 1.609375 10.980469 4.226562v-13.316406c-.324219.054688-.65625.089844-1 .089844zm0 0" fill="#4671c6" data-original="#4671c6" style="" class=""/><path xmlns="http://www.w3.org/2000/svg" d="m260.320312 194.1875h-18.066406c-13.117187 0-23.785156-10.667969-23.785156-23.78125v-27.453125c0-8.75 7.121094-15.871094 15.871094-15.871094h5.601562c16.980469 0 30.796875 13.816407 30.796875 30.800781v25.886719c0 5.746094-4.671875 10.417969-10.417969 10.417969zm-25.980468-59.105469c-4.34375 0-7.871094 3.53125-7.871094 7.871094v27.453125c0 8.703125 7.078125 15.78125 15.785156 15.78125h18.066406c1.332032 0 2.417969-1.082031 2.417969-2.414062v-25.886719c0-12.574219-10.226562-22.800781-22.796875-22.800781h-5.601562zm0 0" fill="#3762cc" data-original="#3762cc" style="" class=""/><path xmlns="http://www.w3.org/2000/svg" d="m197.097656 194.339844h-48.667968c-6.589844 0-12.890626-2.296875-17.960938-6.511719-.578125-.136719-1.121094-.398437-1.59375-.78125-20.863281-16.871094-14.09375-54.507813-10.214844-69.90625.558594-2.222656 2.417969-3.90625 4.730469-4.296875 2.328125-.398438 4.644531.609375 5.910156 2.539062 5.484375 8.382813 20.433594 11.144532 24.082031 11.703126h57.375c8.664063 0 15.710938 7.175781 15.710938 16v21.257812c0 16.539062-13.175781 29.996094-29.371094 29.996094zm-64.628906-14.773438c.710938.160156 1.371094.511719 1.90625 1.03125 3.824219 3.703125 8.8125 5.742188 14.054688 5.742188h48.664062c11.785156 0 21.375-9.867188 21.375-22v-21.257813c0-4.410156-3.457031-8-7.710938-8h-57.671874c-.195313 0-.386719-.011719-.578126-.042969-4.578124-.664062-18.796874-3.355468-27.066406-11.777343-2.960937 13.605469-7.175781 42.796875 7.027344 56.304687zm0 0" fill="#3762cc" data-original="#3762cc" style="" class=""/><path xmlns="http://www.w3.org/2000/svg" d="m131.742188 207.121094c-.566407 0-1.136719-.117188-1.675782-.367188-1.417968-.652344-2.324218-2.070312-2.324218-3.632812v-19.351563c0-1.59375.945312-3.03125 2.402343-3.667969 1.453125-.632812 3.152344-.347656 4.320313.738282 2.636718 2.457031 5.878906 4.171875 9.367187 4.976562 1.945313.445313 3.261719 2.253906 3.089844 4.242188-.125 1.457031-.1875 2.808594-.1875 4.132812v5.015625c0 1.074219-.429687 2.101563-1.195313 2.851563-.765624.753906-1.867187 1.167968-2.875 1.144531-.066406 0-.292968-.011719-.367187-.015625-2.855469 0-5.714844 1.058594-7.957031 2.976562-.738282.632813-1.664063.957032-2.597656.957032zm4-15.765625v4.953125c.972656-.335938 1.976562-.597656 2.992187-.785156v-1.332032c0-.511718.007813-1.027344.027344-1.546875-1.035157-.371093-2.039063-.804687-3.019531-1.289062zm0 0" fill="#3762cc" data-original="#3762cc" style="" class=""/><path xmlns="http://www.w3.org/2000/svg" d="m261.40625 207.414062c-.96875 0-1.925781-.351562-2.675781-1.027343-2.289063-2.0625-5.234375-3.199219-8.300781-3.199219l-.273438.015625c-1.125.039063-2.109375-.394531-2.875-1.144531-.761719-.75-1.195312-1.78125-1.195312-2.851563v-5.015625c0-1.226562-.046876-2.46875-.144532-3.691406-.085937-1.109375.292969-2.207031 1.050782-3.027344.757812-.816406 1.820312-1.285156 2.9375-1.285156h10.476562c.125 0 .25-.015625.375-.035156 1.152344-.183594 2.332031.148437 3.222656.90625.890625.761718 1.402344 1.871094 1.402344 3.042968v13.3125c0 1.582032-.929688 3.011719-2.375 3.65625-.519531.234376-1.074219.34375-1.625.34375zm-7.316406-11.894531c1.128906.210938 2.238281.507813 3.316406.902344v-2.234375h-3.316406zm0 0" fill="#3762cc" data-original="#3762cc" style="" class=""/><path xmlns="http://www.w3.org/2000/svg" d="m432.253906 177.613281-10.183594-44.375h-85.089843l-10.183594 44.375c-.269531 1.175781-.40625 2.382813-.40625 3.597657 0 8.503906 6.589844 15.394531 14.714844 15.394531h76.84375c8.125 0 14.714843-6.890625 14.714843-15.394531-.003906-1.214844-.140624-2.421876-.410156-3.597657zm0 0" fill="#4671c6" data-original="#4671c6" style="" class=""/><path xmlns="http://www.w3.org/2000/svg" d="m417.949219 200.605469h-76.84375c-10.320313 0-18.714844-8.699219-18.714844-19.394531 0-1.507813.171875-3.019532.507813-4.488282l10.183593-44.378906c.414063-1.816406 2.035157-3.105469 3.898438-3.105469h85.09375c1.867187 0 3.480469 1.289063 3.898437 3.105469l10.179688 44.375c.339844 1.464844.511718 2.980469.511718 4.492188-.003906 10.695312-8.394531 19.394531-18.714843 19.394531zm-77.785157-63.367188-9.46875 41.269531c-.203124.886719-.304687 1.792969-.304687 2.703126 0 6.285156 4.808594 11.394531 10.714844 11.394531h76.84375c5.90625 0 10.710937-5.113281 10.710937-11.394531 0-.910157-.101562-1.816407-.304687-2.699219 0 0 0 0 0-.003907l-9.46875-41.269531zm0 0" fill="#3762cc" data-original="#3762cc" style="" class=""/><path xmlns="http://www.w3.org/2000/svg" d="m401.652344 201.539062h-5.925782c-.011718 0-.027343 0-.039062 0h-38.984375c-10.296875 0-18.644531 8.351563-18.644531 18.648438v16.929688h82.242187v-16.929688c-.003906-10.296875-8.351562-18.648438-18.648437-18.648438zm0 0" fill="#6bdddd" data-original="#6bdddd" style="" class=""/><path xmlns="http://www.w3.org/2000/svg" d="m379.179688 197.25c-5.976563 0-11.613282-1.421875-16.59375-3.941406v7.535156c0 .261719.039062.519531.09375.773438h.003906c.050781.253906.132812.5.238281.738281.011719.03125.023437.0625.039063.09375.046874.097656.097656.191406.152343.28125.050781.089843.109375.175781.171875.261719.03125.046874.0625.09375.09375.140624l2.355469 2.996094c2.351563 2.984375 5.605469 5.144532 9.289063 6.007813.492187.117187 1.007812.214843 1.535156.296875 5.984375.894531 11.96875-1.652344 15.6875-6.449219l3.4375-4.429687c.046875-.238282.078125-.480469.078125-.726563v-7.507813c-4.976563 2.511719-10.613281 3.929688-16.582031 3.929688zm0 0" fill="#f9cfcf" data-original="#f9cfcf" style=""/><path xmlns="http://www.w3.org/2000/svg" d="m415.972656 147.234375c-.078125 0-.15625.007813-.234375.011719v-3.425782c0-20.011718-16.367187-36.234374-36.5625-36.234374-20.195312 0-36.5625 16.222656-36.5625 36.234374v3.425782c-.078125-.003906-.15625-.011719-.234375-.011719-6.160156 0-11.152344 4.949219-11.152344 11.050781 0 6.109375 4.992188 11.054688 11.152344 11.054688.40625 0 .804688-.023438 1.195313-.066406 3.777343 16.03125 18.273437 27.976562 35.601562 27.976562 17.320313 0 31.820313-11.945312 35.597657-27.976562.390624.042968.789062.066406 1.195312.066406 6.160156 0 11.152344-4.949219 11.152344-11.054688.003906-6.105468-4.988282-11.050781-11.148438-11.050781zm0 0" fill="#f9cfcf" data-original="#f9cfcf" style=""/><path xmlns="http://www.w3.org/2000/svg" d="m361.007812 164.035156c-2.117187 0-3.835937-1.71875-3.835937-3.835937v-6.394531c0-2.117188 1.71875-3.839844 3.835937-3.839844 2.117188 0 3.839844 1.722656 3.839844 3.839844v6.394531c0 2.117187-1.722656 3.835937-3.839844 3.835937zm0 0" fill="#3762cc" data-original="#3762cc" style="" class=""/><path xmlns="http://www.w3.org/2000/svg" d="m397.175781 164.035156c-2.117187 0-3.839843-1.71875-3.839843-3.835937v-6.394531c0-2.117188 1.722656-3.839844 3.839843-3.839844 2.113281 0 3.835938 1.722656 3.835938 3.839844v6.394531c0 2.117187-1.722657 3.835937-3.835938 3.835937zm0 0" fill="#3762cc" data-original="#3762cc" style="" class=""/><path xmlns="http://www.w3.org/2000/svg" d="m420.296875 241.113281h-82.242187c-2.207032 0-4-1.789062-4-4v-16.929687c0-12.488282 10.160156-22.644532 22.648437-22.644532h1.882813v-1.878906c-8.539063-5.019531-15.035157-13.082031-18.054688-22.429687-7.484375-.910157-13.304688-7.265625-13.304688-14.945313 0-7.007812 4.847657-12.917968 11.386719-14.585937.0625-22.128907 18.234375-40.117188 40.5625-40.117188s40.5 17.988281 40.5625 40.117188c6.539063 1.667969 11.386719 7.574219 11.386719 14.582031 0 7.683594-5.820312 14.035156-13.304688 14.945312-3.023437 9.351563-9.523437 17.417969-18.0625 22.4375v1.875h1.890626c12.488281 0 22.648437 10.160157 22.648437 22.644532v16.929687c0 2.210938-1.789063 4-4 4zm-78.242187-8h74.242187v-12.929687c0-8.074219-6.570313-14.644532-14.644531-14.644532h-5.925782c-.082031 0-.164062-.003906-.246093-.007812-.789063-.039062-1.570313-.3125-2.222657-.8125-1.214843-.929688-1.796874-2.464844-1.5-3.960938l.003907-4.304687c-.253907-.28125-.46875-.601563-.636719-.960937-.9375-2-.082031-4.378907 1.914062-5.320313l.011719-.003906c8.933594-4.175781 15.601563-12.332031 17.832031-21.808594.460938-1.960937 2.300782-3.273437 4.308594-3.0625.257813.027344.515625.042969.78125.042969 3.949219 0 7.15625-3.164063 7.15625-7.054688 0-3.886718-3.207031-7.050781-7.15625-7.050781.0625.003906-.113281.007813-.230468.011719-1.050782 0-2.0625-.414063-2.808594-1.15625-.761719-.75-1.191406-1.773438-1.191406-2.84375v-3.421875c0-17.773438-14.609376-32.234375-32.5625-32.234375-17.957032 0-32.5625 14.460937-32.5625 32.234375v3.421875c0 1.070312-.429688 2.09375-1.191407 2.84375-.765625.75-1.84375 1.152344-2.863281 1.15625-.082031 0-.269531-.011719-.347656-.015625-3.777344.003906-6.984375 3.167969-6.984375 7.058593 0 3.890626 3.207031 7.054688 7.152343 7.054688.265626 0 .527344-.015625.78125-.042969 2.007813-.210937 3.851563 1.101563 4.3125 3.058594 2.226563 9.476563 8.890626 17.628906 17.824219 21.808594h.003907c2 .933593 2.859374 3.316406 1.925781 5.316406-.171875.363281-.386719.691406-.640625.976563v4.382812c.226562 1.171875-.074219 2.351562-.835938 3.273438-.761718.921874-1.886718 1.421874-3.082031 1.421874h-5.964844c-8.078125 0-14.648437 6.570313-14.648437 14.648438v12.925781zm0 0" fill="#3762cc" data-original="#3762cc" style="" class=""/><path xmlns="http://www.w3.org/2000/svg" d="m362.652344 198.898438h-5.648438c-.761718 0-1.488281.273437-2.023437.757812l-3.390625 3.074219c-.523438.46875-.550782 1.222656-.0625 1.722656l18.320312 18.898437c.992188 1.019532 2.824219.820313 3.511719-.382812l5.882813-10.335938zm0 0" fill="#e0ebfc" data-original="#e0ebfc" style="" class=""/><path xmlns="http://www.w3.org/2000/svg" d="m395.703125 198.898438h5.652344c.757812 0 1.488281.273437 2.019531.757812l3.394531 3.074219c.519531.46875.546875 1.222656.058594 1.722656l-18.320313 18.898437c-.988281 1.019532-2.820312.820313-3.511718-.382812l-5.882813-10.335938zm0 0" fill="#e0ebfc" data-original="#e0ebfc" style="" class=""/><path xmlns="http://www.w3.org/2000/svg" d="m385.296875 174.722656h-12.238281c-.667969 0-1.207032.539063-1.207032 1.207032v3.019531c0 1.117187.472657 2.203125 1.355469 3.089843 1.054688 1.0625 2.605469 1.75 4.300781 1.945313h3.339844c1.695313-.195313 3.242188-.882813 4.296875-1.945313.882813-.886718 1.359375-1.972656 1.359375-3.089843v-3.019531c0-.667969-.542968-1.207032-1.207031-1.207032zm0 0" fill="#f9a7a7" data-original="#f9a7a7" style="" class=""/><g xmlns="http://www.w3.org/2000/svg" fill="#3762cc"><path d="m380.847656 185.984375h-3.339844c-.074218 0-.152343-.003906-.226562-.011719-2.175781-.25-4.125-1.144531-5.492188-2.523437-1.25-1.257813-1.9375-2.855469-1.9375-4.496094v-3.019531c0-1.769532 1.441407-3.207032 3.207032-3.207032h12.238281c1.769531 0 3.207031 1.4375 3.207031 3.207032v3.019531c0 1.640625-.6875 3.238281-1.9375 4.496094-1.367187 1.378906-3.320312 2.277343-5.496094 2.527343-.074218.003907-.148437.007813-.222656.007813zm-3.21875-4h3.09375c1.214844-.160156 2.304688-.648437 3.003906-1.351563.507813-.515624.777344-1.097656.777344-1.683593v-2.226563h-10.652344v2.226563c0 .585937.269532 1.167969.777344 1.679687.699219.707032 1.785156 1.195313 3 1.355469zm7.664063-5.261719h.019531zm0 0" fill="#3762cc" data-original="#3762cc" style="" class=""/><path d="m371.457031 228.007812c-1.6875 0-3.320312-.671874-4.484375-1.875l-18.320312-18.894531c-.996094-1.027343-1.519532-2.375-1.46875-3.789062.042968-1.414063.65625-2.722657 1.71875-3.6875l3.390625-3.074219c1.273437-1.152344 2.945312-1.789062 4.710937-1.789062h5.648438c.933594 0 1.835937.324218 2.550781.917968l16.585937 13.734375c1.496094 1.238281 1.886719 3.375.925782 5.058594l-5.882813 10.335937c-.933593 1.640626-2.640625 2.765626-4.570312 3.007813-.269531.039063-.535157.054687-.804688.054687zm-15.042969-24.257812 14.664063 15.128906 3.023437-5.308594-12.886718-10.671874h-3.855469zm1.257813-1.136719c-.003906.003907 0 .003907 0 0zm0 0" fill="#3762cc" data-original="#3762cc" style="" class=""/><path d="m386.894531 228.007812c-.269531 0-.535156-.019531-.800781-.054687-1.929688-.242187-3.636719-1.371094-4.570312-3.011719l-5.882813-10.332031c-.960937-1.6875-.570313-3.820313.925781-5.058594l16.585938-13.734375c.714844-.59375 1.621094-.917968 2.550781-.917968h5.652344c1.761719 0 3.433593.636718 4.707031 1.792968l3.390625 3.070313c1.0625.964843 1.675781 2.273437 1.71875 3.6875.046875 1.414062-.472656 2.761719-1.46875 3.789062l-18.324219 18.898438c-1.164062 1.199219-2.796875 1.871093-4.484375 1.871093zm-2.640625-14.433593 3.023438 5.304687 14.664062-15.125-.945312-.855468h-3.855469zm16.4375-10.957031s0 .003906 0 0zm0 0" fill="#3762cc" data-original="#3762cc" style="" class=""/><path d="m177.164062 232.414062h-14.792968c-8.601563 0-15.597656-6.996093-15.597656-15.597656v-17.128906c0-1.65625 1.34375-3 3-3h39.992187c1.65625 0 3 1.34375 3 3v17.128906c0 8.601563-6.996094 15.597656-15.601563 15.597656zm-24.390624-29.722656v14.125c0 5.292969 4.304687 9.601563 9.597656 9.601563h14.792968c5.292969 0 9.601563-4.308594 9.601563-9.601563v-14.125zm0 0" fill="#3762cc" data-original="#3762cc" style="" class=""/><path d="m230.757812 232.414062h-14.796874c-8.601563 0-15.597657-6.996093-15.597657-15.597656v-17.128906c0-1.65625 1.34375-3 3-3h39.992188c1.65625 0 3 1.34375 3 3v17.128906c0 8.601563-6.996094 15.597656-15.597657 15.597656zm-24.394531-29.722656v14.125c0 5.292969 4.304688 9.601563 9.597657 9.601563h14.796874c5.289063 0 9.597657-4.308594 9.597657-9.601563v-14.125zm0 0" fill="#3762cc" data-original="#3762cc" style="" class=""/><path d="m203.363281 215.507812h-13.597656c-1.65625 0-3-1.34375-3-3 0-1.660156 1.34375-3 3-3h13.597656c1.65625 0 3 1.339844 3 3 0 1.65625-1.34375 3-3 3zm0 0" fill="#3762cc" data-original="#3762cc" style="" class=""/></g><path xmlns="http://www.w3.org/2000/svg" d="m205.441406 239.476562h-17.929687c-.976563 0-1.769531.789063-1.769531 1.769532v4.425781c0 1.632813.699218 3.222656 1.988281 4.523437 1.464843 1.472657 3.578125 2.433594 5.90625 2.777344h5.683593c2.324219-.34375 4.445313-1.304687 5.90625-2.777344 1.289063-1.296874 1.988282-2.886718 1.988282-4.523437v-4.425781c-.003906-.980469-.796875-1.769532-1.773438-1.769532zm0 0" fill="#f9a7a7" data-original="#f9a7a7" style="" class=""/><path xmlns="http://www.w3.org/2000/svg" d="m199.316406 254.972656h-5.679687c-.097657 0-.195313-.007812-.292969-.023437-2.808594-.414063-5.304688-1.601563-7.035156-3.34375-1.65625-1.671875-2.570313-3.777344-2.570313-5.933594v-4.425781c0-2.078125 1.695313-3.769532 3.773438-3.769532h17.929687c2.078125 0 3.769532 1.691407 3.769532 3.769532v4.425781c0 2.15625-.914063 4.261719-2.570313 5.933594-1.730469 1.742187-4.226563 2.929687-7.035156 3.34375-.09375.015625-.191407.023437-.289063.023437zm-5.527344-4h5.375c1.898438-.304687 3.542969-1.078125 4.640626-2.183594.921874-.929687 1.40625-2.007812 1.40625-3.117187v-4.195313h-17.46875v4.195313c0 1.109375.488281 2.1875 1.410156 3.117187 1.09375 1.105469 2.738281 1.875 4.636718 2.183594zm11.652344-9.496094h.019532zm0 0" fill="#3762cc" data-original="#3762cc" style="" class=""/><path xmlns="http://www.w3.org/2000/svg" d="m404.503906 102.171875h-2.992187c-2.523438 0-4.75 1.167969-6.25 2.96875-2.089844-4.257813-6.457031-7.195313-11.519531-7.195313h-21.332032c-15.683594 0-28.398437 12.714844-28.398437 28.398438v2.347656c0 8.5 6.890625 15.390625 15.390625 15.390625h27.648437c7.203125 0 13.476563-3.90625 16.859375-9.707031 1.6875 5.617188 6.886719 9.707031 13.050782 9.707031h11.582031c2.441406 0 4.417969-1.976562 4.417969-4.417969v-19.027343c.003906-10.199219-8.261719-18.464844-18.457032-18.464844zm0 0" fill="#4671c6" data-original="#4671c6" style="" class=""/><path xmlns="http://www.w3.org/2000/svg" d="m418.542969 148.082031h-11.578125c-5.382813 0-10.386719-2.507812-13.675782-6.53125-4.324218 4.125-10.136718 6.53125-16.234374 6.53125h-27.652344c-10.691406 0-19.390625-8.699219-19.390625-19.390625v-2.347656c0-17.863281 14.535156-32.398438 32.398437-32.398438h21.332032c4.835937 0 9.292968 2.023438 12.429687 5.480469 1.644531-.816406 3.464844-1.253906 5.339844-1.253906h2.992187c12.382813 0 22.460938 10.078125 22.460938 22.464844v19.027343c0 4.640626-3.777344 8.417969-8.421875 8.417969zm-24.632813-17.710937c.160156 0 .316406.011718.476563.03125 1.582031.1875 2.898437 1.292968 3.359375 2.824218 1.210937 4.035157 5 6.855469 9.21875 6.855469h11.578125c.234375 0 .421875-.1875.421875-.417969v-19.027343c0-7.976563-6.488282-14.464844-14.460938-14.464844h-2.992187c-1.65625 0-2.707031.960937-3.179688 1.527344-.871093 1.042969-2.191406 1.570312-3.546875 1.410156-1.347656-.160156-2.519531-.992187-3.113281-2.207031-1.503906-3.054688-4.542969-4.957032-7.929687-4.957032h-21.332032c-13.453125 0-24.398437 10.949219-24.398437 24.402344v2.34375c0 6.285156 5.113281 11.394532 11.390625 11.394532h27.652344c5.488281 0 10.625-2.960938 13.402343-7.726563.726563-1.242187 2.046875-1.988281 3.453125-1.988281zm0 0" fill="#3762cc" data-original="#3762cc" style="" class=""/><path xmlns="http://www.w3.org/2000/svg" d="m440 242.003906h-125c-2.207031 0-4-1.789062-4-4v-159.101562c0-2.207032 1.792969-4 4-4h112.902344c8.878906 0 16.097656 7.21875 16.097656 16.097656v147.003906c0 2.210938-1.792969 4-4 4zm-121-8h117v-143.003906c0-4.464844-3.628906-8.097656-8.097656-8.097656h-108.902344zm0 0" fill="#3762cc" data-original="#3762cc" style="" class=""/></g></svg>
