<svg id="Capa_1" enable-background="new 0 0 512 512" height="512" viewBox="0 0 512 512" width="512" xmlns="http://www.w3.org/2000/svg"><g><g><path d="m28.762 26.104h454.475v344.81h-454.475z" fill="#fee2ca"/><path d="m443.54 26.104h39.698v344.81h-39.698z" fill="#fed5b0"/><path d="m495.669 39.393h-479.338c-4.418 0-8-3.582-8-8v-15.893c0-4.418 3.582-8 8-8h479.338c4.418 0 8 3.582 8 8v15.893c0 4.418-3.582 8-8 8z" fill="#0268b4"/><path d="m495.669 386.86h-479.338c-4.418 0-8-3.582-8-8v-15.893c0-4.418 3.582-8 8-8h479.338c4.418 0 8 3.582 8 8v15.893c0 4.419-3.582 8-8 8z" fill="#0268b4"/><path d="m278.62 80.256h155.748c5.523 0 10 4.477 10 10v84.236c0 5.523-4.477 10-10 10h-155.748c-5.523 0-10-4.477-10-10v-84.236c0-5.523 4.477-10 10-10z" fill="#8ac9fe"/><path d="m349.304 216.923h84.236c5.523 0 10 4.477 10 10v84.236c0 5.523-4.477 10-10 10h-84.236c-5.523 0-10-4.477-10-10v-84.236c0-5.523 4.477-10 10-10z" fill="#8ac9fe"/><path d="m307.619 278.349-38.945-28.321-116.065 119.126c-27.093 0-98.944 0-110.436 0-16.489 0-29.855 13.367-29.855 29.855v105.491h179.078c0-23.651 0-47.325 0-71.06z" fill="#c4e2ff"/><path d="m74.196 311.659v44.838l27.558 18.372 27.559-18.372v-44.838z" fill="#ffbfb1"/><path d="m168.268 246.497c-.308 0-.614.011-.919.023-5.264-31.474-32.625-55.463-65.594-55.463-32.969 0-60.331 23.989-65.594 55.463-.305-.012-.611-.023-.919-.023-12.474 0-22.586 10.112-22.586 22.585 0 12.474 10.112 22.586 22.586 22.586.308 0 .614-.011.919-.023 5.264 31.474 32.625 55.463 65.594 55.463 32.969 0 60.331-23.989 65.594-55.463.305.012.611.023.919.023 12.474 0 22.586-10.112 22.586-22.586 0-12.473-10.112-22.585-22.586-22.585z" fill="#ffcebf"/><path d="m74.196 356.497-23.296 12.657 32.866 24.496 17.988-18.78z" fill="#b3dafe"/><path d="m129.313 356.497 23.296 12.657-32.867 24.496-17.988-18.78z" fill="#b3dafe"/><path d="m101.754 374.87-14.125 14.748 5.12 20.064h18.011l5.12-20.064z" fill="#fd544d"/><path d="m92.749 409.682-7.962 94.818h33.932l-7.961-94.818z" fill="#fd544d"/><path d="m495.669 7.5h-34.016c4.418 0 8 3.582 8 8v15.893c0 4.418-3.582 8-8 8h34.016c4.418 0 8-3.582 8-8v-15.893c0-4.418-3.581-8-8-8z" fill="#015a9a"/><path d="m495.669 354.967h-34.016c4.418 0 8 3.582 8 8v15.893c0 4.418-3.582 8-8 8h34.016c4.418 0 8-3.582 8-8v-15.893c0-4.418-3.581-8-8-8z" fill="#015a9a"/><path d="m268.674 250.028-11.755 12.065 22.354 16.256-116.224 155.091v71.06h28.346c0-23.651 0-47.325 0-71.06l116.223-155.092z" fill="#b3dafe"/><path d="m303.385 286.196-39.493-33.189c-3.259-2.739-3.681-7.601-.942-10.86l31.641-37.651c2.739-3.259 7.601-3.681 10.86-.942l39.493 33.189c3.259 2.739 3.681 7.601.942 10.86l-31.641 37.65c-2.738 3.26-7.601 3.681-10.86.943z" fill="#ffcebf"/><path d="m168.268 246.497c-.308 0-.614.011-.919.023-5.264-31.474-32.625-55.463-65.594-55.463-3.373 0-6.683.264-9.921.749 28.411 4.251 50.948 26.461 55.673 54.715.305-.012.611-.023.919-.023 12.474 0 22.586 10.112 22.586 22.585 0 12.474-10.112 22.586-22.586 22.586-.308 0-.614-.011-.919-.023-4.725 28.254-27.262 50.463-55.673 54.715 3.238.484 6.548.749 9.921.749 32.969 0 60.331-23.989 65.594-55.463.305.012.611.023.919.023 12.474 0 22.586-10.112 22.586-22.586 0-12.475-10.112-22.587-22.586-22.587z" fill="#ffbfb1"/><path d="m344.945 236.743-39.493-33.189c-3.259-2.739-8.121-2.317-10.86.942l-4.427 5.268 32.103 26.979c3.259 2.739 3.681 7.601.942 10.86l-27.214 32.382 7.39 6.21c3.259 2.739 8.121 2.317 10.86-.942l31.641-37.651c2.738-3.258 2.317-8.12-.942-10.859z" fill="#ffbfb1"/><path d="m147.306 169.111c-4.973-7.974-13.817-13.283-23.906-13.283h-54.104c-27.566 0-49.912 22.346-49.912 49.912v40.78h94.474c9.666 0 18.479-3.642 25.152-9.623 4.665 5.861 11.856 9.623 19.93 9.623h25.185v-40.07c0-20.45-16.437-37.052-36.819-37.339z" fill="#c4573a"/><g><path d="m147.306 169.111c-4.973-7.974-13.817-13.283-23.906-13.283h-22.677c10.089 0 18.934 5.309 23.906 13.283 20.382.287 36.819 16.889 36.819 37.34v40.07h22.677v-40.07c0-20.451-16.437-37.053-36.819-37.34z" fill="#a74b30"/></g><path d="m129.313 356.497-10.182 6.788 10.801 5.869-19.635 14.634 9.445 9.862 32.867-24.496z" fill="#8ac9fe"/><g><path d="m150.093 305.895h-7.688c-2.799 0-5.068-2.269-5.068-5.068s2.269-5.068 5.068-5.068h7.688c2.799 0 5.068 2.269 5.068 5.068s-2.269 5.068-5.068 5.068z" fill="#ffb09e"/></g><g><path d="m61.104 305.895h-7.688c-2.799 0-5.068-2.269-5.068-5.068s2.269-5.068 5.068-5.068h7.688c2.799 0 5.068 2.269 5.068 5.068s-2.269 5.068-5.068 5.068z" fill="#ffb09e"/></g><path d="m121.754 297.917c0 14.958-8.992 27.083-20.083 27.083-11.092 0-20.083-12.126-20.083-27.083z" fill="#ffb09e"/></g><g><path d="m496.669 46.893c7.995 0 14.5-6.505 14.5-14.5v-17.893c0-7.995-6.505-14.5-14.5-14.5h-50c-4.142 0-7.5 3.358-7.5 7.5s3.358 7.5 7.5 7.5h49.5v16.893c-7.509 0-472.917 0-480.339 0v-16.893h395.839c4.142 0 7.5-3.358 7.5-7.5s-3.358-7.5-7.5-7.5h-396.338c-7.995 0-14.5 6.505-14.5 14.5v17.893c0 7.995 6.505 14.5 14.5 14.5h5.932v127.456c-5.921 9.029-9.378 19.811-9.378 31.391v40.78c0 1.018.205 1.987.572 2.872-4.558 5.276-7.301 12.157-7.301 19.69 0 11.546 6.539 21.594 16.107 26.636v51.749h-4.931c-8.547 0-15.5 6.953-15.5 15.5v15.893c0 4.49 1.918 8.567 5.028 11.417-.674 2.803-1.041 5.725-1.041 8.732v28.413c0 4.142 3.358 7.5 7.5 7.5s7.5-3.358 7.5-7.5v-28.413c0-3.33.737-6.489 2.048-9.331 2.947-6.399 8.715-10.981 15.456-12.488 3.032-.669 4.837-.536 11.09-.536l30.872 23.01c1.035.771 2.276 1.259 3.529 1.419l2.356 9.23-7.279 86.687h-58.073v-34.588c0-4.142-3.358-7.5-7.5-7.5s-7.5 3.358-7.5 7.5v42.088c0 4.142 3.358 7.5 7.5 7.5h72.469 33.932 72.676c4.142 0 7.5-3.358 7.5-7.5v-68.561l31.158-41.579h266.615c7.995 0 14.5-6.505 14.5-14.5v-17.893c0-7.995-6.505-14.5-14.5-14.5h-5.932v-300.574zm-460.407 0h439.476v300.574h-210.543l38.045-50.768 1.264-1.686c5.463 1.421 11.611-.328 15.484-4.934l11.817-14.061v35.141c0 9.649 7.851 17.5 17.5 17.5h84.236c9.649 0 17.5-7.851 17.5-17.5v-84.236c0-9.649-7.851-17.5-17.5-17.5h-84.236c-1.461 0-2.874.2-4.231.539l15.232-17.97h74.063c9.649 0 17.5-7.851 17.5-17.5v-84.236c0-9.649-7.851-17.5-17.5-17.5h-155.749c-9.649 0-17.5 7.851-17.5 17.5v84.236c0 9.649 7.851 17.5 17.5 17.5h62.021l-15.513 18.301c-.612-.514-14.275-11.998-14.886-12.507-6.477-5.414-16.034-4.491-21.392 1.885l-31.642 37.651c-3.814 4.538-4.587 10.782-2.235 16.021l-28.593 29.347-63.113 64.778h-26.453v-1.618c16.848-9.02 29.846-24.412 35.654-43.35.008-.027.018-.054.026-.082.374-1.224.728-2.458 1.041-3.711.002 0 .004-.001.006-.001 13.392-2.377 23.743-13.645 24.729-27.463.572-8.015-2.017-15.837-7.214-21.852.871-2.1.569-.751.569-42.94 0-23.054-17.735-42.293-40.276-44.61-5.892-7.461-14.424-12.211-23.856-13.281-1.347-.153-2.713-.231-4.092-.231-58.845 0-56.398-.178-61.526.496-9.222 1.197-17.87 4.607-25.308 9.788-.1.07-.203.134-.303.205v-111.925zm232.457 200.372c-.001 0-.001-.001-.002-.001-.001-.001-.001-.003-.002-.003-.072-.064-.085-.215-.023-.289l31.641-37.65c.063-.076.216-.09.293-.026l39.493 33.19c.038.031.06.086.065.141.005.056-.008.113-.039.151l-31.64 37.65c-.06.071-.198.082-.277.03-.005-.004-.013-.001-.018-.006l-.444-.373c-4.575-3.844-35.496-29.829-39.047-32.814zm81.051-16.264-2.966-2.492v-1.586c0-1.378 1.122-2.5 2.5-2.5h84.236c1.378 0 2.5 1.122 2.5 2.5v84.236c0 1.378-1.122 2.5-2.5 2.5h-84.236c-1.378 0-2.5-1.122-2.5-2.5v-52.99l4.824-5.74c5.295-6.302 4.699-15.917-1.858-21.428zm71.542-122.58c-3.16-2.678-7.893-2.288-10.571.872l-57.385 67.699h-74.736c-1.378 0-2.5-1.122-2.5-2.5v-84.236c0-1.378 1.122-2.5 2.5-2.5h155.749c1.378 0 2.5 1.122 2.5 2.5v84.236c0 1.378-1.122 2.5-2.5 2.5h-61.349l49.163-58c2.678-3.16 2.288-7.893-.871-10.571zm-394.428 97.319c0-13.61 6.491-25.892 16.649-33.658.042-.032.083-.066.125-.099 5.284-4.008 11.457-6.746 18.005-7.954.064-.012.128-.023.192-.034 4.948-.889 2.591-.667 61.544-.667 7.177 0 13.735 3.645 17.542 9.751 1.35 2.165 3.708 3.495 6.258 3.53 14.704.208 26.923 11.221 29.085 25.361.224 1.463.34 2.959.34 4.48v32.57c-9.105 0-11.126 0-17.685 0-5.5 0-10.625-2.476-14.062-6.793-2.734-3.435-7.729-3.733-10.874-.914-5.545 4.97-12.7 7.708-20.146 7.708h-79.537-7.436zm-11.053 166.801v-9.573c0-.276.224-.5.5-.5h18.093c-7.035 1.49-13.547 5.058-18.593 10.073zm16.313-88.696c-6.838-1.433-11.989-7.506-11.989-14.763 0-8.079 6.283-14.668 14.331-15.062h79.372c8.752 0 17.236-2.526 24.495-7.213 5.785 4.644 12.989 7.213 20.587 7.213h10.013c8.038.357 14.4 6.958 14.4 15.062 0 8.318-6.767 15.086-15.085 15.086-.204 0-.406-.009-.607-.017-3.771-.165-7.084 2.525-7.709 6.256-4.747 28.384-29.425 49.201-58.197 49.201-28.667 0-53.429-20.693-58.197-49.201-.587-3.51-3.572-6.143-7.176-6.253-1.002-.029-2.268.101-4.238-.309zm69.61 82.01-20.059-13.372v-.62c4.681 1.305 9.506 2.145 14.232 2.511 1.5.117 3.787.234 5.827.234 6.626 0 13.504-.918 20.059-2.745v.62zm5.829 25.943-2.65 10.384h-6.358l-2.65-10.384 5.829-6.086zm-71.321-44.331v-32.285c6.888 13.114 17.531 23.759 30.434 30.667v1.618zm46.672 36.209-18.152-13.529 9.018-4.899 16.347 10.898zm10.009 113.324 6.702-79.818h4.216l6.702 79.818zm36.766-131.752 9.018 4.899-18.152 13.529-7.213-7.531zm55.685 63.695c-.972 1.298-1.498 2.876-1.498 4.498v63.559h-58.28l-7.278-86.68 2.357-9.237c1.32-.168 2.555-.694 3.529-1.419 21.761-16.219 33.115-24.618 33.757-25.276l107.454-110.288 18.4 15.462 8.285 6.963-23.247 31.021c-2.981 3.978-77.37 103.245-83.479 111.397zm310.775-66.476v16.893h-254.874l12.659-16.893z"/><path d="m69.289 287.536c4.142 0 7.5-3.358 7.5-7.5v-12.249c0-4.142-3.358-7.5-7.5-7.5s-7.5 3.358-7.5 7.5v12.249c0 4.142 3.357 7.5 7.5 7.5z"/><path d="m134.22 287.536c4.142 0 7.5-3.358 7.5-7.5v-12.249c0-4.142-3.358-7.5-7.5-7.5s-7.5 3.358-7.5 7.5v12.249c0 4.142 3.358 7.5 7.5 7.5z"/><path d="m68.46 101.59h161.458c4.142 0 7.5-3.358 7.5-7.5s-3.358-7.5-7.5-7.5h-161.458c-4.142 0-7.5 3.358-7.5 7.5s3.358 7.5 7.5 7.5z"/><path d="m68.46 135.492h161.458c4.142 0 7.5-3.358 7.5-7.5s-3.358-7.5-7.5-7.5h-161.458c-4.142 0-7.5 3.358-7.5 7.5s3.358 7.5 7.5 7.5z"/><g><path d="m101.671 332.5c-15.467 0-27.583-15.191-27.583-34.583 0-4.142 3.358-7.5 7.5-7.5h40.167c4.142 0 7.5 3.358 7.5 7.5-.001 19.392-12.117 34.583-27.584 34.583zm-11.587-27.083c1.935 7.02 6.462 12.083 11.586 12.083 5.125 0 9.652-5.063 11.587-12.083z"/></g></g></g></svg>